<svg width="47" height="46" viewBox="0 0 47 46" fill="none" xmlns="http://www.w3.org/2000/svg">
<path d="M35.999 15.5777V14.3407C37.5906 13.4244 38.6205 11.7291 38.6205 9.89647V7.69727C38.6205 4.85663 36.2799 2.5658 33.3775 2.5658C30.4751 2.5658 28.0876 4.85663 28.0876 7.69727V9.89647C28.0876 11.6833 29.0239 13.3327 30.6155 14.2491V15.5777C29.9133 15.761 29.258 16.0359 28.6026 16.4024C27.5727 14.0658 25.1853 12.4164 22.4233 12.4164C19.7082 12.4164 17.4143 13.9742 16.3376 16.265C15.7291 15.9901 15.1205 15.7152 14.5119 15.5777V14.3407C16.1036 13.4244 17.1335 11.7291 17.1335 9.89647V7.69727C17.1335 4.85663 14.7928 2.5658 11.8904 2.5658C8.98804 2.5658 6.6474 4.85663 6.6474 7.69727V9.89647C6.6474 11.6833 7.58366 13.3327 9.17529 14.2491V15.5777C4.96214 16.769 2.10657 20.4801 2.10657 24.7869C2.10657 25.1534 2.43426 25.4742 2.80876 25.4742H16.6653C16.7121 25.4742 16.759 25.4742 16.8058 25.4742C17.3675 26.3447 18.1633 27.0777 19.0996 27.6275V29.6893C13.5289 31.1554 9.73704 36.0578 9.73704 41.7391C9.73704 42.1056 10.0647 42.4263 10.4392 42.4263H34.5478C34.9223 42.4263 35.25 42.1056 35.25 41.7391C35.25 36.1036 31.2709 31.1096 25.747 29.6893V27.7192C26.7301 27.1694 27.5259 26.4363 28.1345 25.52H42.506C42.8805 25.52 43.2082 25.1993 43.2082 24.8327C43.1613 20.526 40.1653 16.7232 35.999 15.5777ZM3.51095 24.1455C3.79183 20.5718 6.41334 17.6395 10.0179 16.8148C10.3456 16.7232 10.5797 16.4483 10.5797 16.1275V13.8367C10.5797 13.5618 10.4392 13.3327 10.2052 13.2411C8.89441 12.5997 8.05179 11.3168 8.05179 9.89647V7.69727C8.05179 5.63552 9.78386 3.9403 11.8904 3.9403C13.997 3.9403 15.7291 5.63552 15.7291 7.69727V9.89647C15.7291 11.3168 14.8396 12.6455 13.5289 13.2869C13.2948 13.3785 13.1076 13.6534 13.1076 13.9283V16.1275C13.1076 16.4483 13.3416 16.7232 13.6693 16.8148C14.4651 16.9981 15.2141 17.273 15.9163 17.6395C15.8227 18.0977 15.7759 18.5558 15.7759 19.0598V21.9921C15.7759 22.7252 15.9163 23.4582 16.1504 24.1455H3.51095ZM24.7171 26.6654C24.4831 26.757 24.2958 27.0319 24.2958 27.3068V30.2391C24.2958 30.5598 24.5299 30.8347 24.8576 30.9263C29.8197 31.9801 33.4711 36.1953 33.7988 41.0977H11.1414C11.4223 36.1953 14.9801 32.0718 19.9422 30.9722C20.2699 30.8805 20.504 30.6056 20.504 30.2849V27.261C20.504 26.9861 20.3635 26.757 20.1295 26.6654C18.3038 25.7949 17.1803 24.008 17.1803 22.0379V19.1056C17.1803 16.2192 19.5677 13.9283 22.4701 13.9283C25.3725 13.9283 27.76 16.265 27.76 19.1056V21.9921C27.76 23.9622 26.5896 25.7949 24.7171 26.6654ZM28.7898 24.1455C29.0239 23.4582 29.1643 22.7252 29.1643 21.9921V19.0598C29.1643 18.6475 29.1175 18.1893 29.0239 17.8228C29.7729 17.3646 30.6155 17.0439 31.4582 16.8606C31.7858 16.769 32.0199 16.4941 32.0199 16.1734V13.8825C32.0199 13.6076 31.8795 13.3785 31.6454 13.2869C30.3347 12.6455 29.492 11.3626 29.492 9.94229V7.74309C29.492 5.68133 31.2241 3.98611 33.3307 3.98611C35.4372 3.98611 37.1693 5.68133 37.1693 7.74309V9.94229C37.1693 11.3626 36.2799 12.6913 34.9691 13.3327C34.735 13.4244 34.5478 13.6993 34.5478 13.9742V16.1734C34.5478 16.4941 34.7819 16.769 35.1096 16.8606C38.7141 17.6395 41.3825 20.6634 41.7101 24.1913L28.7898 24.1455Z" fill="white" stroke="white" stroke-width="1.5" stroke-linecap="round" stroke-linejoin="round"/>
</svg>
